<svg width="44" height="29" viewBox="0 0 44 29" fill="none" xmlns="http://www.w3.org/2000/svg">
<path d="M42.9114 12.8109H41.083L41.9867 10.9433C43.1331 10.715 44 9.70137 44 8.48888C44 7.24528 43.0882 6.21111 41.8981 6.01861C40.5827 3.64948 38.0131 1.87015 34.8968 1.15987V1.11072C34.8968 0.754765 34.6083 0.466187 34.2523 0.466187C33.9573 0.466187 33.7091 0.664616 33.6326 0.935148C33.2401 0.88453 32.8407 0.851702 32.4363 0.834944C32.333 0.617179 32.1116 0.466187 31.8545 0.466187C31.5973 0.466187 31.376 0.617179 31.2726 0.834944C30.8681 0.851702 30.4687 0.88453 30.0762 0.935233C29.9998 0.664702 29.7516 0.466187 29.4565 0.466187C29.1005 0.466187 28.812 0.754765 28.812 1.11072V1.15987C25.6958 1.87015 23.1261 3.64957 21.8108 6.01861C20.6207 6.21111 19.709 7.24528 19.709 8.48888C19.709 8.5615 19.7123 8.63334 19.7184 8.70433C16.7427 8.98105 14.0692 10.2242 12.0633 12.0896H8.01359C7.73755 12.0896 7.4904 12.2134 7.32316 12.408H5.43039C5.12033 11.6246 4.35067 11.071 3.47342 11.071C2.31344 11.071 1.36976 12.0146 1.36976 13.1746C1.36976 13.2737 1.37758 13.3717 1.39124 13.4683C0.580851 13.7608 0 14.5375 0 15.4474C0 15.8514 0.114727 16.2398 0.325445 16.5722C0.114727 16.9047 0 17.293 0 17.697C0 18.857 0.94368 19.8007 2.10366 19.8007C2.98091 19.8007 3.75057 19.2471 4.06063 18.4636H5.76537C5.84358 18.7509 6.0592 18.988 6.35087 19.087L8.37177 19.7733C8.35974 19.9815 8.35321 20.1911 8.35321 20.4021C8.35321 20.6009 8.35888 20.7988 8.36945 20.9961C8.05346 21.0723 7.75852 21.2031 7.49607 21.3792C7.06398 21.0894 6.54491 20.9197 5.98666 20.9197C4.48791 20.9197 3.26863 22.139 3.26863 23.6378C3.26863 23.6607 3.27035 23.6833 3.27095 23.7061H2.51685C2.09129 23.7061 1.71411 23.9452 1.53244 24.3299C1.35077 24.7147 1.40585 25.1578 1.6763 25.4864L3.6098 27.8359C3.81743 28.088 4.12371 28.2327 4.45036 28.2327H31.7103C32.0663 28.2327 32.3548 27.9441 32.3548 27.5882C32.3548 27.2322 32.0663 26.9436 31.7103 26.9436H4.54498L2.94147 24.9952H42.4853L40.8818 26.9436H34.7181C34.362 26.9436 34.0735 27.2322 34.0735 27.5882C34.0735 27.9441 34.362 28.2327 34.7181 28.2327H40.9764C41.3031 28.2327 41.6095 28.088 41.8169 27.8358L43.7504 25.4865C44.0207 25.1578 44.0759 24.7147 43.8942 24.3299C43.7126 23.9451 43.3354 23.7061 42.9099 23.7061H42.2716C42.905 22.61 43.143 21.311 42.9119 20.0346C42.8639 19.7702 42.657 19.5631 42.3925 19.5153C40.6466 19.1992 38.857 19.758 37.6048 21.0101C37.5283 21.0865 37.4554 21.1658 37.3842 21.2462C37.0148 21.0462 36.594 20.9301 36.1474 20.9214V19.695H36.835C37.925 19.695 38.8117 18.8083 38.8117 17.7183V16.8531H42.9114C43.5116 16.8531 44 16.3647 44 15.7645V13.8995C44 13.2992 43.5116 12.8109 42.9114 12.8109ZM6.29054 23.7062H4.56002C4.5589 23.6835 4.5577 23.6608 4.5577 23.6379C4.5577 22.8499 5.1987 22.2089 5.98666 22.2089C6.21079 22.2089 6.42254 22.2614 6.61126 22.354C6.40535 22.7365 6.28813 23.1737 6.28813 23.6379C6.28822 23.6608 6.28994 23.6833 6.29054 23.7062ZM38.5163 21.9216C39.3595 21.0786 40.5223 20.6483 41.7005 20.7267C41.7727 21.812 41.412 22.8847 40.6953 23.7062H39.6325L40.5131 22.8256C40.7648 22.5739 40.7648 22.1658 40.5131 21.9141C40.2613 21.6624 39.8533 21.6624 39.6015 21.9141L38.6882 22.8275C38.6075 22.5698 38.4893 22.3286 38.3402 22.1101C38.3969 22.0456 38.4553 21.9826 38.5163 21.9216ZM25.5032 3.94219C26.4787 3.28863 27.6054 2.79844 28.812 2.4901V3.15337C28.812 3.50932 29.1005 3.7979 29.4565 3.7979C29.8126 3.7979 30.1011 3.50932 30.1011 3.15337V2.23452C30.4665 2.18253 30.8368 2.14816 31.2099 2.12899V3.15337C31.2099 3.50932 31.4984 3.7979 31.8545 3.7979C32.2105 3.7979 32.499 3.50932 32.499 3.15337V2.12899C32.8721 2.14824 33.2424 2.18262 33.6077 2.23452V3.15337C33.6077 3.50932 33.8962 3.7979 34.2523 3.7979C34.6083 3.7979 34.8968 3.50932 34.8968 3.15337V2.4901C36.1035 2.79844 37.2302 3.28863 38.2057 3.94227C39.1561 4.57898 39.9304 5.34787 40.4945 6.19822C40.2768 6.29404 40.0729 6.42002 39.89 6.57325C39.4452 6.20054 38.8773 5.98612 38.2829 5.98612C37.6885 5.98612 37.1205 6.20045 36.6758 6.57325C36.231 6.20054 35.663 5.98612 35.0687 5.98612C34.4743 5.98612 33.9063 6.20045 33.4616 6.57325C33.0168 6.20054 32.4488 5.98612 31.8545 5.98612C31.26 5.98612 30.6921 6.20045 30.2473 6.57325C29.8025 6.20054 29.2346 5.98612 28.6402 5.98612C28.0458 5.98612 27.4778 6.20045 27.0331 6.57325C26.5884 6.20054 26.0204 5.98612 25.426 5.98612C24.8316 5.98612 24.2637 6.20054 23.8189 6.57325C23.6361 6.42002 23.4321 6.29404 23.2144 6.19822C23.7785 5.34778 24.5528 4.5789 25.5032 3.94219ZM22.2117 7.2751C22.642 7.2751 23.0441 7.50773 23.2612 7.88216C23.3765 8.08094 23.5889 8.2034 23.8188 8.2034C24.0486 8.2034 24.261 8.08102 24.3763 7.88225C24.5935 7.50773 24.9957 7.2751 25.4259 7.2751C25.8562 7.2751 26.2584 7.50773 26.4755 7.88216C26.5908 8.08094 26.8031 8.2034 27.033 8.2034C27.2629 8.2034 27.4752 8.08102 27.5906 7.88216C27.8077 7.50773 28.2098 7.2751 28.6401 7.2751C29.0703 7.2751 29.4725 7.50773 29.6898 7.88225C29.8051 8.08102 30.0175 8.2034 30.2472 8.2034C30.4771 8.2034 30.6895 8.08102 30.8048 7.88216C31.0219 7.50773 31.4241 7.2751 31.8544 7.2751C32.2846 7.2751 32.6868 7.50773 32.904 7.88225C33.0192 8.08102 33.2317 8.2034 33.4615 8.2034C33.6914 8.2034 33.9037 8.08102 34.019 7.88216C34.2361 7.50773 34.6383 7.2751 35.0686 7.2751C35.4988 7.2751 35.901 7.50773 36.1182 7.88225C36.2336 8.08102 36.4459 8.2034 36.6757 8.2034C36.9056 8.2034 37.118 8.08102 37.2333 7.88216C37.4504 7.50773 37.8525 7.2751 38.2828 7.2751C38.713 7.2751 39.1152 7.50773 39.3325 7.88225C39.4477 8.08102 39.6602 8.2034 39.89 8.2034C40.1198 8.2034 40.3322 8.08102 40.4475 7.88216C40.6646 7.50773 41.0668 7.2751 41.4971 7.2751C42.1663 7.2751 42.7108 7.81952 42.7108 8.4888C42.7108 9.15808 42.1663 9.70249 41.4971 9.70249C41.0668 9.70249 40.6646 9.46986 40.4475 9.09543C40.3322 8.89666 40.1198 8.7742 39.89 8.7742C39.6602 8.7742 39.4477 8.89657 39.3325 9.09534C39.1152 9.46986 38.713 9.70249 38.2828 9.70249C37.8525 9.70249 37.4504 9.46986 37.2333 9.09543C37.118 8.89666 36.9056 8.7742 36.6757 8.7742C36.4459 8.7742 36.2335 8.89657 36.1182 9.09534C35.901 9.46986 35.4988 9.70249 35.0686 9.70249C34.6383 9.70249 34.2361 9.46986 34.019 9.09543C33.9037 8.89666 33.6914 8.7742 33.4615 8.7742C33.2317 8.7742 33.0192 8.89657 32.904 9.09534C32.6868 9.46986 32.2846 9.70249 31.8544 9.70249C31.4241 9.70249 31.0219 9.46986 30.8048 9.09543C30.6895 8.89666 30.4771 8.7742 30.2472 8.7742C30.0175 8.7742 29.805 8.89657 29.6898 9.09534C29.4725 9.46986 29.0703 9.70249 28.6401 9.70249C28.2098 9.70249 27.8077 9.46986 27.5906 9.09543C27.4752 8.89666 27.2629 8.7742 27.033 8.7742C26.8031 8.7742 26.5908 8.89657 26.4755 9.09543C26.3486 9.31423 26.1583 9.48412 25.9363 9.58794C24.4222 8.98474 22.7569 8.64916 21.0094 8.6458C21.0026 8.59433 20.998 8.54216 20.998 8.4888C20.998 7.81952 21.5424 7.2751 22.2117 7.2751ZM8.39163 13.3786H10.8635C10.6095 13.6949 10.3712 14.0227 10.1518 14.3624H8.39163V13.3786ZM5.7328 17.1746H3.5567C3.22145 17.1746 2.94216 17.4316 2.9144 17.7657C2.87968 18.184 2.52355 18.5116 2.10375 18.5116C1.65455 18.5116 1.28915 18.1462 1.28915 17.697C1.28915 17.4535 1.397 17.2244 1.58512 17.0688C1.7331 16.9463 1.81878 16.7643 1.81878 16.5722C1.81878 16.38 1.7331 16.198 1.58512 16.0755C1.397 15.9199 1.28915 15.691 1.28915 15.4473C1.28915 14.9981 1.65455 14.6327 2.10375 14.6327C2.52355 14.6327 2.87968 14.9603 2.9144 15.3786C2.94216 15.7127 3.22145 15.9697 3.5567 15.9697H5.73289V17.1746H5.7328ZM5.95332 14.6808H4.06063C3.82362 14.082 3.31779 13.6184 2.70093 13.4327C2.67343 13.3505 2.65873 13.2635 2.65873 13.1745C2.65873 12.7253 3.02414 12.3599 3.47334 12.3599C3.89314 12.3599 4.24927 12.6876 4.28407 13.1058C4.31183 13.4399 4.59113 13.697 4.92637 13.697H7.10256V14.3624H6.64383C6.3678 14.3624 6.12055 14.4863 5.95332 14.6808ZM10.433 23.7062H7.5796C7.57848 23.6835 7.57728 23.6608 7.57728 23.6379C7.57728 22.8499 8.21829 22.2089 9.00625 22.2089C9.79421 22.2089 10.4352 22.8499 10.4352 23.6379C10.4353 23.6608 10.434 23.6835 10.433 23.7062ZM30.3116 23.7062H28.0679C28.0668 23.6835 28.0656 23.6608 28.0656 23.6379C28.0656 22.8499 28.7066 22.2089 29.4946 22.2089C29.8885 22.2089 30.2459 22.3692 30.5046 22.6279C30.3791 22.9404 30.3093 23.281 30.3093 23.6379C30.3092 23.6608 30.311 23.6833 30.3116 23.7062ZM29.4946 20.9197C27.9959 20.9197 26.7765 22.139 26.7765 23.6378C26.7765 23.6607 26.7782 23.6833 26.7788 23.7061H11.722C11.7226 23.6832 11.7244 23.6607 11.7244 23.6378C11.7244 22.3649 10.8446 21.294 9.66135 21C9.64915 20.8017 9.64227 20.6024 9.64227 20.4021C9.64227 20.3364 9.64322 20.2709 9.64451 20.2054L16.2366 22.4439C16.6807 22.5948 17.1349 22.6691 17.5847 22.6691C18.4345 22.6691 19.2687 22.4037 19.9891 21.8877C21.0906 21.0983 21.7223 19.8685 21.7223 18.5133C21.7223 18.0288 21.6392 17.5535 21.4753 17.1005C21.3541 16.7658 20.9846 16.5927 20.6498 16.7139C20.3151 16.835 20.142 17.2046 20.2632 17.5393C20.3761 17.8512 20.4334 18.1789 20.4334 18.5132C20.4334 19.4475 19.9978 20.2955 19.2383 20.8396C18.479 21.3838 17.5359 21.5235 16.6512 21.2232L7.02195 17.9534V15.6514H17.5715C17.8948 15.6514 18.2133 15.7056 18.5182 15.8125C18.8543 15.9304 19.222 15.7534 19.3397 15.4173C19.4575 15.0813 19.2805 14.7137 18.9446 14.5959C18.5023 14.4409 18.0403 14.3623 17.5715 14.3623H11.7273C13.7835 11.6855 17.1654 9.93444 20.9831 9.93444C27.2364 9.93444 32.3238 14.6302 32.3238 20.4021C32.3238 20.6083 32.3166 20.8135 32.3036 21.0178C31.9142 21.1257 31.5596 21.3183 31.2609 21.5745C30.7855 21.1668 30.1685 20.9197 29.4946 20.9197ZM34.454 23.7062H31.6006C31.5995 23.6835 31.5983 23.6608 31.5983 23.6379C31.5983 22.8499 32.2393 22.2089 33.0272 22.2089C33.8152 22.2089 34.4563 22.8499 34.4563 23.6379C34.4563 23.6608 34.4551 23.6835 34.454 23.7062ZM34.8583 21.2197C34.7555 21.2725 34.6558 21.3304 34.5611 21.3954C34.2745 21.1988 33.9482 21.0568 33.5974 20.9815C33.6073 20.7892 33.6128 20.5961 33.6128 20.4022C33.6128 20.1646 33.6029 19.9292 33.5878 19.695H34.8583V21.2197ZM37.5226 23.6378C37.5226 23.6607 37.5214 23.6834 37.5203 23.7061H35.743C35.7436 23.6832 35.7454 23.6607 35.7454 23.6378C35.7454 23.181 35.6316 22.7505 35.4317 22.3723C35.6296 22.2679 35.8547 22.2088 36.0937 22.2088C36.8816 22.2088 37.5226 22.8498 37.5226 23.6378ZM37.5226 17.7184C37.5226 18.0976 37.2142 18.406 36.835 18.406H33.4281C33.33 17.8757 33.1959 17.3568 33.0241 16.8531H37.5226V17.7184ZM42.7109 15.564H32.4932C32.2456 15.0557 31.9601 14.5668 31.6404 14.0999H34.375C34.731 14.0999 35.0195 13.8113 35.0195 13.4554C35.0195 13.0994 34.731 12.8109 34.375 12.8109H30.6187C30.0022 12.1339 29.3059 11.5221 28.5421 10.9893C28.5747 10.9906 28.6074 10.9916 28.6401 10.9916C29.2345 10.9916 29.8024 10.7771 30.2472 10.4044C30.692 10.7771 31.26 10.9916 31.8544 10.9916C32.4487 10.9916 33.0167 10.7771 33.4615 10.4044C33.9062 10.7771 34.4743 10.9916 35.0686 10.9916C35.6629 10.9916 36.2309 10.7771 36.6757 10.4044C37.1204 10.7771 37.6885 10.9916 38.2828 10.9916C38.8772 10.9916 39.4451 10.7771 39.89 10.4044C40.105 10.5846 40.3489 10.7274 40.6106 10.8272L39.6508 12.8109H37.3828C37.0268 12.8109 36.7383 13.0994 36.7383 13.4554C36.7383 13.8113 37.0268 14.0999 37.3828 14.0999H42.7109V15.564Z" fill="#363853"/>
</svg>
